name C:\Users\u0101727\Documents\MyRepositories\paper-ad\predictivesimulations_2d/Results/PredSim_2D/IK_c8.mot
datacolumns 11
datarows 43
range 0.63317979 1.03611238
endheader
time	pelvis_tilt	pelvis_tx	pelvis_ty	hip_flexion_l	hip_flexion_r	knee_angle_l	knee_angle_r	ankle_angle_l	ankle_angle_r	lumbar_extension	
          0.63317979	        -15.07153026	          0.85495671	          0.89987181	         25.71163955	         11.39035912	        -10.65182355	        -40.88753789	          8.49742408	         -0.30695148	         10.32790680	
          0.64277342	        -15.08862163	          0.86692918	          0.90130916	         24.79284844	         12.66326540	        -10.40480777	        -41.78400069	          8.60014056	          0.66925712	         10.28955028	
          0.65236706	        -15.10323250	          0.87884581	          0.90250285	         23.85879398	         13.96861986	        -10.13296870	        -42.57256703	          8.74365131	          1.72541680	         10.24720512	
          0.66196069	        -15.11534811	          0.89071423	          0.90345613	         22.91390363	         15.30141394	         -9.84409516	        -43.24505241	          8.92208784	          2.84385689	         10.20119086	
          0.67155432	        -15.12509250	          0.90254175	          0.90417962	         21.96206847	         16.65565289	         -9.54524098	        -43.79393382	          9.12895102	          4.00676461	         10.15198607	
          0.68114796	        -15.13262777	          0.91433462	          0.90469029	         21.00746671	         18.02551988	         -9.24397987	        -44.21155186	          9.35656318	          5.19629552	         10.10001858	
          0.69074159	        -15.13809502	          0.92609836	          0.90500891	         20.05466858	         19.40553451	         -8.94815783	        -44.49010016	          9.59688887	          6.39463173	         10.04562968	
          0.70033522	        -15.14163996	          0.93783896	          0.90515692	         19.10848123	         20.78920056	         -8.66616044	        -44.62263816	          9.84198980	          7.58397853	          9.98919827	
          0.70992886	        -15.14348293	          0.94956347	          0.90515460	         18.17214030	         22.16959658	         -8.40360799	        -44.60353318	         10.08453981	          8.74666200	          9.93125801	
          0.71952249	        -15.14394114	          0.96128024	          0.90502007	         17.24645059	         23.53983340	         -8.16179218	        -44.42871912	         10.31789766	          9.86531533	          9.87255177	
          0.72911612	        -15.14329662	          0.97299800	          0.90476887	         16.33283620	         24.89205037	         -7.94350272	        -44.09617011	         10.53527339	         10.92320063	          9.81380960	
          0.73870976	        -15.14179386	          0.98472499	          0.90441410	         15.43344108	         26.21823468	         -7.75237421	        -43.60501590	         10.73058320	         11.90487486	          9.75565713	
          0.74830339	        -15.13967397	          0.99647026	          0.90396644	         14.54983501	         27.50962463	         -7.59142254	        -42.95822784	         10.89919032	         12.79694129	          9.69882446	
          0.75789702	        -15.13719524	          1.00824223	          0.90343503	         13.68295120	         28.75821798	         -7.46265758	        -42.16030143	         11.03813887	         13.58917531	          9.64400252	
          0.76749065	        -15.13462166	          1.02004758	          0.90282789	         12.83364653	         29.95775940	         -7.36717422	        -41.21566398	         11.14629212	         14.27549128	          9.59168485	
          0.77708429	        -15.13219185	          1.03189260	          0.90215157	         12.00262985	         31.10255234	         -7.30664424	        -40.13102344	         11.22437151	         14.85428861	          9.54231133	
          0.78667792	        -15.13012770	          1.04378165	          0.90141139	         11.19022245	         32.18966273	         -7.28197094	        -38.91185616	         11.27518903	         15.32840301	          9.49607032	
          0.79627155	        -15.12864069	          1.05571832	          0.90061113	         10.39631086	         33.21772881	         -7.29355036	        -37.56315398	         11.30319414	         15.70410363	          9.45302748	
          0.80586519	        -15.12794969	          1.06770597	          0.89975272	          9.62064422	         34.18615040	         -7.34139090	        -36.09029677	         11.31369751	         15.98976314	          9.41316204	
          0.81545882	        -15.12833679	          1.07974914	          0.89883631	          8.86261300	         35.09343426	         -7.42493384	        -34.50081761	         11.31196422	         16.19451876	          9.37654840	
          0.82505245	        -15.13019411	          1.09185429	          0.89786074	          8.12116422	         35.93611853	         -7.54311063	        -32.80245054	         11.30160191	         16.32748981	          9.34349515	
          0.83464609	        -15.13384476	          1.10402954	          0.89682486	          7.39594828	         36.70962267	         -7.69620571	        -31.00662969	         11.28342586	         16.39746375	          9.31438874	
          0.84423972	        -15.13935690	          1.11628690	          0.89573132	          6.68786637	         37.40724355	         -7.88789700	        -29.13955719	         11.25581429	         16.41258206	          9.28981860	
          0.85383335	        -15.14675727	          1.12864462	          0.89459256	          5.99894824	         38.01603324	         -8.12442766	        -27.23545224	         11.21272044	         16.38013848	          9.27108889	
          0.86342699	        -15.15606568	          1.14112421	          0.89343028	          5.33235426	         38.52021293	         -8.41292794	        -25.32650730	         11.14172766	         16.30652512	          9.25992086	
          0.87302062	        -15.16696232	          1.15374448	          0.89226702	          4.69249950	         38.91035234	         -8.76188165	        -23.44056559	         11.02655442	         16.19712987	          9.25750211	
          0.88261425	        -15.17865012	          1.16652001	          0.89112073	          4.08465112	         39.18630922	         -9.18115375	        -21.59950588	         10.85066937	         16.05607476	          9.26423903	
          0.89220789	        -15.18991666	          1.17946366	          0.89000574	          3.51409503	         39.35497268	         -9.68106166	        -19.82495508	         10.59980228	         15.88595623	          9.28005944	
          0.90180152	        -15.19954301	          1.19258929	          0.88893418	          2.98571096	         39.42356086	        -10.27127581	        -18.13171918	         10.26111219	         15.68796848	          9.30505517	
          0.91139515	        -15.20638636	          1.20591137	          0.88791525	          2.50393120	         39.39889139	        -10.96036094	        -16.53156984	          9.82244702	         15.46200632	          9.33946509	
          0.92098879	        -15.20919232	          1.21944408	          0.88695421	          2.07337133	         39.28855542	        -11.75731416	        -15.04154219	          9.27295623	         15.20678796	          9.38342834	
          0.93058242	        -15.20669775	          1.23320184	          0.88605213	          1.69954989	         39.09759205	        -12.67242391	        -13.67618237	          8.60166654	         14.92029975	          9.43723733	
          0.94017605	        -15.19749953	          1.24719823	          0.88520472	          1.38837880	         38.83078508	        -13.71662094	        -12.45538625	          7.79814340	         14.59966118	          9.50114502	
          0.94976969	        -15.18004132	          1.26144499	          0.88440083	          1.14551565	         38.49349482	        -14.90011020	        -11.40794741	          6.85488255	         14.24107282	          9.57530125	
          0.95936332	        -15.15288196	          1.27595321	          0.88362135	          0.97574870	         38.08605163	        -16.23218351	        -10.56473274	          5.77191064	         13.84017051	          9.66029516	
          0.96895695	        -15.11483100	          1.29073116	          0.88283477	          0.88200127	         37.60141554	        -17.72581838	         -9.95940154	          4.57158821	         13.39196012	          9.75718795	
          0.97855058	        -15.06573427	          1.30577255	          0.88199722	          0.86700108	         37.02160469	        -19.38695841	         -9.64010037	          3.26745019	         12.89164836	          9.86712314	
          0.98814422	        -15.00814844	          1.32106035	          0.88113210	          0.93798253	         36.27854538	        -21.21248502	         -9.72739422	          1.83950933	         12.33715948	          9.99407347	
          0.99773785	        -14.95028535	          1.33640866	          0.88036636	          1.09957764	         35.41537908	        -23.18381722	        -10.04158536	          0.37312917	         11.76783185	         10.12861148	
          1.00733148	        -14.90312199	          1.35147678	          0.87992955	          1.37863961	         34.55729928	        -25.20850356	        -10.32171823	         -0.91019039	         11.21761636	         10.24749544	
          1.01692512	        -14.87522074	          1.36601759	          0.88008347	          1.80343512	         33.74156385	        -27.14631990	        -10.57994478	         -1.91244286	         10.68638504	         10.33681036	
          1.02651875	        -14.86892129	          1.37996811	          0.88098394	          2.36987002	         32.97062904	        -28.93464496	        -10.81114418	         -2.66298152	         10.18879660	         10.39541383	
          1.03611238	        -14.87953235	          1.39341163	          0.88259010	          3.06116025	         32.22596297	        -30.59419928	        -11.00332234	         -3.17124317	          9.74113898	         10.42944797	
